<svg xmlns="http://www.w3.org/2000/svg" xmlns:xlink="http://www.w3.org/1999/xlink" width="500" zoomAndPan="magnify" viewBox="0 0 375 374.999991" height="500" preserveAspectRatio="xMidYMid meet" version="1.0"><defs><g/></defs><rect x="-37.5" width="450" fill="#ffffff" y="-37.499999" height="449.999989" fill-opacity="1"/><rect x="-37.5" width="450" fill="#ffffff" y="-37.499999" height="449.999989" fill-opacity="1"/><g fill="#000000" fill-opacity="1"><g transform="translate(271.165528, 198.776289)"><g><path d="M -7.359375 -9.53125 C -8.367188 -11.945312 -10.273438 -13.113281 -13.078125 -13.03125 L -13.203125 -17.078125 C -11.054688 -17.085938 -9.226562 -16.554688 -7.71875 -15.484375 C -6.21875 -14.410156 -5.046875 -12.863281 -4.203125 -10.84375 C -2.929688 -7.789062 -2.8125 -5.066406 -3.84375 -2.671875 C -4.882812 -0.273438 -6.960938 1.570312 -10.078125 2.875 C -13.203125 4.1875 -15.941406 4.382812 -18.296875 3.46875 C -20.648438 2.5625 -22.46875 0.578125 -23.75 -2.484375 C -24.6875 -4.722656 -25 -6.734375 -24.6875 -8.515625 C -24.375 -10.296875 -23.46875 -11.832031 -21.96875 -13.125 L -19.546875 -10 C -20.367188 -9.3125 -20.878906 -8.414062 -21.078125 -7.3125 C -21.273438 -6.207031 -21.128906 -5.066406 -20.640625 -3.890625 C -19.878906 -2.078125 -18.75 -0.9375 -17.25 -0.46875 C -15.75 0 -13.921875 -0.21875 -11.765625 -1.125 C -9.578125 -2.039062 -8.109375 -3.21875 -7.359375 -4.65625 C -6.609375 -6.101562 -6.609375 -7.726562 -7.359375 -9.53125 Z M -7.359375 -9.53125 "/></g></g></g><g fill="#000000" fill-opacity="1"><g transform="translate(258.997019, 172.544986)"><g><path d="M -22.578125 -9.296875 C -20.984375 -10.742188 -19.296875 -11.703125 -17.515625 -12.171875 C -15.742188 -12.648438 -14.003906 -12.59375 -12.296875 -12 C -10.585938 -11.414062 -9.023438 -10.34375 -7.609375 -8.78125 C -5.421875 -6.382812 -4.410156 -3.863281 -4.578125 -1.21875 C -4.753906 1.425781 -6.070312 3.867188 -8.53125 6.109375 C -10.96875 8.335938 -13.488281 9.398438 -16.09375 9.296875 C -18.707031 9.203125 -21.117188 7.945312 -23.328125 5.53125 C -25.535156 3.113281 -26.566406 0.59375 -26.421875 -2.03125 C -26.273438 -4.664062 -24.992188 -7.085938 -22.578125 -9.296875 Z M -19.609375 -6.046875 C -21.242188 -4.546875 -22.171875 -2.976562 -22.390625 -1.34375 C -22.617188 0.289062 -22.09375 1.816406 -20.8125 3.234375 C -19.507812 4.648438 -18.039062 5.320312 -16.40625 5.25 C -14.769531 5.1875 -13.125 4.398438 -11.46875 2.890625 C -9.789062 1.367188 -8.832031 -0.226562 -8.59375 -1.90625 C -8.351562 -3.582031 -8.863281 -5.109375 -10.125 -6.484375 C -11.425781 -7.910156 -12.898438 -8.582031 -14.546875 -8.5 C -16.191406 -8.425781 -17.878906 -7.609375 -19.609375 -6.046875 Z M -19.609375 -6.046875 "/></g></g></g><g fill="#000000" fill-opacity="1"><g transform="translate(237.489145, 151.224257)"><g><path d="M -1.75 -0.96875 L -11.828125 17.046875 L -15.609375 14.921875 L -7.15625 -0.171875 L -16.8125 -5.578125 L -15.1875 -8.5 Z M -1.75 -0.96875 "/></g></g></g><g fill="#000000" fill-opacity="1"><g transform="translate(214.991014, 139.489758)"><g><path d="M -23.640625 6.109375 C -23.234375 3.992188 -22.457031 2.210938 -21.3125 0.765625 C -20.175781 -0.679688 -18.75 -1.679688 -17.03125 -2.234375 C -15.3125 -2.785156 -13.414062 -2.863281 -11.34375 -2.46875 C -8.15625 -1.863281 -5.835938 -0.453125 -4.390625 1.765625 C -2.953125 3.992188 -2.546875 6.738281 -3.171875 10 C -3.785156 13.25 -5.164062 15.613281 -7.3125 17.09375 C -9.457031 18.570312 -12.140625 19.007812 -15.359375 18.40625 C -18.566406 17.789062 -20.898438 16.390625 -22.359375 14.203125 C -23.816406 12.023438 -24.242188 9.328125 -23.640625 6.109375 Z M -19.3125 6.9375 C -19.726562 9.113281 -19.535156 10.921875 -18.734375 12.359375 C -17.929688 13.796875 -16.59375 14.695312 -14.71875 15.0625 C -12.820312 15.414062 -11.238281 15.070312 -9.96875 14.03125 C -8.695312 13 -7.851562 11.382812 -7.4375 9.1875 C -7.007812 6.957031 -7.203125 5.101562 -8.015625 3.625 C -8.828125 2.144531 -10.148438 1.226562 -11.984375 0.875 C -13.890625 0.507812 -15.476562 0.851562 -16.75 1.90625 C -18.019531 2.96875 -18.875 4.644531 -19.3125 6.9375 Z M -19.3125 6.9375 "/></g></g></g><g fill="#000000" fill-opacity="1"><g transform="translate(184.751678, 135.148078)"><g><path d="M -16 2.5 L -10.03125 9.515625 L -5.03125 8.734375 L -6.25 0.984375 L -1.96875 0.3125 L 1.21875 20.703125 L -8.984375 22.296875 C -11.421875 22.679688 -13.378906 22.453125 -14.859375 21.609375 C -16.347656 20.773438 -17.25 19.375 -17.5625 17.40625 C -17.78125 15.976562 -17.5625 14.679688 -16.90625 13.515625 C -16.25 12.359375 -15.257812 11.503906 -13.9375 10.953125 L -20.796875 3.25 Z M -13.265625 16.5625 C -12.960938 18.519531 -11.554688 19.300781 -9.046875 18.90625 L -3.578125 18.0625 L -4.515625 12.03125 L -10.109375 12.90625 C -11.296875 13.09375 -12.15625 13.503906 -12.6875 14.140625 C -13.226562 14.773438 -13.421875 15.582031 -13.265625 16.5625 Z M -13.265625 16.5625 "/></g></g></g><g fill="#000000" fill-opacity="1"><g transform="translate(156.526595, 140.772952)"><g><path d="M -14.65625 7.78125 L -10.578125 11.59375 L -3.625 7.90625 L -4.46875 2.375 L -0.65625 0.359375 L 2.359375 22.109375 L -2.140625 24.5 L -18.4375 9.78125 Z M -1.375 20.515625 L -1.453125 20.171875 C -1.535156 19.816406 -1.617188 19.410156 -1.703125 18.953125 C -1.796875 18.492188 -2.207031 15.914062 -2.9375 11.21875 L -8.1875 14 L -3.609375 18.28125 L -2.125 19.75 Z M -1.375 20.515625 "/></g></g></g><g fill="#000000" fill-opacity="1"><g transform="translate(131.684265, 155.304078)"><g><path d="M -6.265625 22.0625 C -7.816406 20.613281 -8.882812 19.039062 -9.46875 17.34375 C -10.0625 15.65625 -10.144531 13.960938 -9.71875 12.265625 C -9.289062 10.578125 -8.40625 9.015625 -7.0625 7.578125 L -1.359375 1.46875 L 13.734375 15.546875 L 8.625 21.015625 C 6.257812 23.554688 3.785156 24.921875 1.203125 25.109375 C -1.378906 25.304688 -3.867188 24.289062 -6.265625 22.0625 Z M -3.296875 18.890625 C -1.671875 20.398438 -0.0390625 21.128906 1.59375 21.078125 C 3.238281 21.035156 4.789062 20.234375 6.25 18.671875 L 8.34375 16.421875 L -1.859375 6.90625 L -4.359375 9.578125 C -5.628906 10.941406 -6.171875 12.457031 -5.984375 14.125 C -5.796875 15.800781 -4.898438 17.390625 -3.296875 18.890625 Z M -3.296875 18.890625 "/></g></g></g><g fill="#000000" fill-opacity="1"><g transform="translate(112.790022, 177.194738)"><g><path d="M 0.84375 24.40625 C -1.144531 23.550781 -2.71875 22.410156 -3.875 20.984375 C -5.039062 19.554688 -5.703125 17.941406 -5.859375 16.140625 C -6.023438 14.347656 -5.691406 12.476562 -4.859375 10.53125 C -3.578125 7.5625 -1.695312 5.613281 0.78125 4.6875 C 3.269531 3.757812 6.039062 3.953125 9.09375 5.265625 C 12.125 6.566406 14.128906 8.425781 15.109375 10.84375 C 16.085938 13.269531 15.929688 15.984375 14.640625 18.984375 C 13.347656 21.992188 11.472656 23.972656 9.015625 24.921875 C 6.566406 25.867188 3.84375 25.695312 0.84375 24.40625 Z M 2.578125 20.359375 C 4.609375 21.234375 6.414062 21.429688 8 20.953125 C 9.582031 20.484375 10.75 19.375 11.5 17.625 C 12.257812 15.851562 12.273438 14.234375 11.546875 12.765625 C 10.816406 11.304688 9.425781 10.132812 7.375 9.25 C 5.28125 8.351562 3.421875 8.140625 1.796875 8.609375 C 0.179688 9.085938 -0.992188 10.179688 -1.734375 11.890625 C -2.503906 13.671875 -2.515625 15.296875 -1.765625 16.765625 C -1.015625 18.234375 0.429688 19.429688 2.578125 20.359375 Z M 2.578125 20.359375 "/></g></g></g><g fill="#000000" fill-opacity="1"><g transform="translate(212.933705, 182.999988)"><g><path d="M -8.546875 0 L -7.375 3.015625 L -2.671875 3.015625 L -1.484375 0 L -0.03125 0 L -4.234375 10.3125 L -5.828125 10.3125 L -9.96875 0 Z M -5.015625 9.265625 L -4.953125 9.0625 C -4.828125 8.65625 -4.644531 8.132812 -4.40625 7.5 L -3.09375 4.109375 L -6.953125 4.109375 L -5.625 7.515625 C -5.488281 7.847656 -5.351562 8.226562 -5.21875 8.65625 Z M -5.015625 9.265625 "/></g></g><g transform="translate(202.928823, 182.999988)"><g><path d="M -9.3125 2.84375 C -9.3125 1.894531 -8.9375 1.160156 -8.1875 0.640625 C -7.445312 0.117188 -6.398438 -0.140625 -5.046875 -0.140625 C -2.535156 -0.140625 -1.082031 0.726562 -0.6875 2.46875 L -2.03125 2.75 C -2.1875 2.125 -2.519531 1.664062 -3.03125 1.375 C -3.539062 1.082031 -4.234375 0.9375 -5.109375 0.9375 C -6.003906 0.9375 -6.695312 1.09375 -7.1875 1.40625 C -7.6875 1.71875 -7.9375 2.175781 -7.9375 2.78125 C -7.9375 3.113281 -7.859375 3.382812 -7.703125 3.59375 C -7.546875 3.800781 -7.328125 3.972656 -7.046875 4.109375 C -6.773438 4.253906 -6.445312 4.367188 -6.0625 4.453125 C -5.675781 4.546875 -5.25 4.648438 -4.78125 4.765625 C -3.957031 4.941406 -3.332031 5.117188 -2.90625 5.296875 C -2.488281 5.484375 -2.15625 5.6875 -1.90625 5.90625 C -1.664062 6.125 -1.484375 6.382812 -1.359375 6.6875 C -1.234375 6.988281 -1.171875 7.332031 -1.171875 7.71875 C -1.171875 8.59375 -1.503906 9.269531 -2.171875 9.75 C -2.847656 10.226562 -3.816406 10.46875 -5.078125 10.46875 C -6.253906 10.46875 -7.148438 10.285156 -7.765625 9.921875 C -8.390625 9.566406 -8.828125 8.957031 -9.078125 8.09375 L -7.703125 7.859375 C -7.546875 8.398438 -7.253906 8.796875 -6.828125 9.046875 C -6.410156 9.296875 -5.820312 9.421875 -5.0625 9.421875 C -4.238281 9.421875 -3.609375 9.28125 -3.171875 9 C -2.742188 8.726562 -2.53125 8.320312 -2.53125 7.78125 C -2.53125 7.46875 -2.613281 7.207031 -2.78125 7 C -2.945312 6.789062 -3.1875 6.613281 -3.5 6.46875 C -3.820312 6.320312 -4.457031 6.144531 -5.40625 5.9375 C -5.71875 5.863281 -6.03125 5.789062 -6.34375 5.71875 C -6.664062 5.644531 -6.96875 5.550781 -7.25 5.4375 C -7.539062 5.332031 -7.8125 5.207031 -8.0625 5.0625 C -8.3125 4.925781 -8.53125 4.753906 -8.71875 4.546875 C -8.90625 4.347656 -9.050781 4.109375 -9.15625 3.828125 C -9.257812 3.546875 -9.3125 3.21875 -9.3125 2.84375 Z M -9.3125 2.84375 "/></g></g><g transform="translate(192.923941, 182.999988)"><g><path d="M -9.21875 7.21875 C -9.21875 6.238281 -8.894531 5.457031 -8.25 4.875 C -7.613281 4.300781 -6.75 4.015625 -5.65625 4.015625 L -2.625 4.015625 L -2.625 0 L -1.234375 0 L -1.234375 10.3125 L -5.578125 10.3125 C -6.734375 10.3125 -7.628906 10.039062 -8.265625 9.5 C -8.898438 8.957031 -9.21875 8.195312 -9.21875 7.21875 Z M -7.8125 7.203125 C -7.8125 8.535156 -7.007812 9.203125 -5.40625 9.203125 L -2.625 9.203125 L -2.625 5.125 L -5.46875 5.125 C -7.03125 5.125 -7.8125 5.816406 -7.8125 7.203125 Z M -7.8125 7.203125 "/></g></g><g transform="translate(182.919059, 182.999988)"><g><path d="M -1.234375 0 L -1.234375 10.3125 L -9.0625 10.3125 L -9.0625 9.171875 L -2.625 9.171875 L -2.625 5.859375 L -8.625 5.859375 L -8.625 4.734375 L -2.625 4.734375 L -2.625 1.140625 L -9.359375 1.140625 L -9.359375 0 Z M -1.234375 0 "/></g></g><g transform="translate(172.914176, 182.999988)"><g><path d="M -7.921875 0 L -2.40625 8.796875 L -2.4375 8.078125 L -2.46875 6.859375 L -2.46875 0 L -1.234375 0 L -1.234375 10.3125 L -2.859375 10.3125 L -8.4375 1.46875 C -8.375 2.425781 -8.34375 3.117188 -8.34375 3.546875 L -8.34375 10.3125 L -9.609375 10.3125 L -9.609375 0 Z M -7.921875 0 "/></g></g></g></svg>