<svg xmlns="http://www.w3.org/2000/svg" xmlns:xlink="http://www.w3.org/1999/xlink" width="500" zoomAndPan="magnify" viewBox="0 0 375 374.999991" height="500" preserveAspectRatio="xMidYMid meet" version="1.0"><defs><g/></defs><rect x="-37.5" width="450" fill="#ffffff" y="-37.499999" height="449.999989" fill-opacity="1"/><rect x="-37.5" width="450" fill="#ffffff" y="-37.499999" height="449.999989" fill-opacity="1"/><g fill="#000000" fill-opacity="1"><g transform="translate(260.382938, 220.171615)"><g><path d="M 1.75 -18.8125 L -7.859375 -14.078125 L -8.40625 -8.203125 L 0.6875 -7.359375 L 0.21875 -2.328125 L -23.75 -4.5625 L -22.640625 -16.546875 C -22.367188 -19.398438 -21.546875 -21.546875 -20.171875 -22.984375 C -18.796875 -24.429688 -16.957031 -25.046875 -14.65625 -24.828125 C -12.976562 -24.671875 -11.570312 -24.054688 -10.4375 -22.984375 C -9.3125 -21.921875 -8.632812 -20.5625 -8.40625 -18.90625 L 2.28125 -24.453125 Z M -14.921875 -19.75 C -17.222656 -19.96875 -18.515625 -18.601562 -18.796875 -15.65625 L -19.390625 -9.234375 L -12.3125 -8.578125 L -11.703125 -15.140625 C -11.566406 -16.546875 -11.78125 -17.640625 -12.34375 -18.421875 C -12.914062 -19.203125 -13.773438 -19.644531 -14.921875 -19.75 Z M -14.921875 -19.75 "/></g></g></g><g fill="#000000" fill-opacity="1"><g transform="translate(258.194071, 174.265154)"><g><path d="M -9.671875 -16.765625 L -13.9375 -11.84375 L -9.34375 -3.890625 L -2.953125 -5.109375 L -0.4375 -0.75 L -25.6875 3.671875 L -28.65625 -1.484375 L -12.171875 -21.09375 Z M -23.953125 -0.75 L -23.578125 -0.859375 C -23.160156 -0.960938 -22.6875 -1.070312 -22.15625 -1.1875 C -21.625 -1.3125 -18.640625 -1.90625 -13.203125 -2.96875 L -16.671875 -8.96875 L -21.46875 -3.4375 L -23.09375 -1.65625 Z M -23.953125 -0.75 "/></g></g></g><g fill="#000000" fill-opacity="1"><g transform="translate(230.043916, 138.563569)"><g><path d="M -2.09375 -1.046875 L -12.8125 20.515625 L -17.328125 18.265625 L -8.34375 0.1875 L -19.90625 -5.5625 L -18.171875 -9.046875 Z M -2.09375 -1.046875 "/></g></g></g><g fill="#000000" fill-opacity="1"><g transform="translate(190.735803, 125.159401)"><g><path d="M -20.25 18.75 C -20.414062 17.21875 -20.210938 15.804688 -19.640625 14.515625 C -19.066406 13.222656 -18.160156 12.175781 -16.921875 11.375 C -15.679688 10.570312 -14.160156 10.070312 -12.359375 9.875 L -6.421875 9.234375 L -7.34375 0.796875 L -2.328125 0.25 L 0.28125 24.1875 L -10.46875 25.359375 C -13.332031 25.671875 -15.613281 25.25 -17.3125 24.09375 C -19.007812 22.9375 -19.988281 21.15625 -20.25 18.75 Z M -15.21875 18.125 C -14.9375 20.632812 -13.304688 21.726562 -10.328125 21.40625 L -5.15625 20.84375 L -6 13.078125 L -11.3125 13.65625 C -12.6875 13.8125 -13.710938 14.269531 -14.390625 15.03125 C -15.078125 15.800781 -15.351562 16.832031 -15.21875 18.125 Z M -15.21875 18.125 "/></g></g></g><g fill="#000000" fill-opacity="1"><g transform="translate(148.148887, 135.770684)"><g><path d="M -13.5625 11.640625 L -6.828125 19.46875 L 1.125 12.640625 L -5.609375 4.8125 L -1.78125 1.53125 L 13.90625 19.796875 L 10.078125 23.078125 L 3.84375 15.8125 L -4.109375 22.640625 L 2.125 29.90625 L -1.703125 33.203125 L -17.390625 14.9375 Z M -13.5625 11.640625 "/></g></g></g><g fill="#000000" fill-opacity="1"><g transform="translate(119.309328, 169.204005)"><g><path d="M -0.84375 2.1875 L 21.609375 10.859375 L 19.796875 15.5625 L -2.65625 6.890625 Z M -0.84375 2.1875 "/></g></g></g><g fill="#000000" fill-opacity="1"><g transform="translate(111.712875, 197.128525)"><g><path d="M 0.25 2.328125 L 24.1875 -0.28125 L 26.234375 18.546875 L 22.359375 18.96875 L 20.859375 5.15625 L 14.859375 5.8125 L 16.25 18.578125 L 12.359375 19 L 10.96875 6.234375 L 4.671875 6.921875 L 6.25 21.4375 L 2.375 21.859375 Z M 0.25 2.328125 "/></g></g></g><g fill="#ffde59" fill-opacity="1"><g transform="translate(167.634061, 205.749946)"><g><path d="M 1.34375 0 L 1.34375 -13.765625 L 4.21875 -13.765625 L 4.21875 0 Z M 1.34375 0 "/></g></g></g><g fill="#ffde59" fill-opacity="1"><g transform="translate(180.828537, 205.749946)"><g><path d="M 1.34375 0 L 1.34375 -13.765625 L 4.21875 -13.765625 L 4.21875 0 Z M 1.34375 0 "/></g></g></g><g fill="#ffde59" fill-opacity="1"><g transform="translate(194.023013, 205.749946)"><g><path d="M 8.140625 0 L 5.21875 0 L 0.140625 -13.765625 L 3.140625 -13.765625 L 5.984375 -4.921875 C 6.148438 -4.347656 6.390625 -3.484375 6.703125 -2.328125 L 6.90625 -3.171875 L 7.40625 -4.921875 L 10.21875 -13.765625 L 13.203125 -13.765625 Z M 8.140625 0 "/></g></g></g></svg>