<svg xmlns="http://www.w3.org/2000/svg" xmlns:xlink="http://www.w3.org/1999/xlink" width="500" zoomAndPan="magnify" viewBox="0 0 375 374.999991" height="500" preserveAspectRatio="xMidYMid meet" version="1.0"><defs><clipPath id="3038cb79e8"><path d="M 112.5 177 L 157 177 L 157 225 L 112.5 225 Z M 112.5 177 " clip-rule="nonzero"/></clipPath><clipPath id="c30d18a586"><path d="M 143 149.53125 L 214 149.53125 L 214 206 L 143 206 Z M 143 149.53125 " clip-rule="nonzero"/></clipPath><clipPath id="cdce20173c"><path d="M 194 168 L 262.5 168 L 262.5 225 L 194 225 Z M 194 168 " clip-rule="nonzero"/></clipPath></defs><rect x="-37.5" width="450" fill="#ffffff" y="-37.499999" height="449.999989" fill-opacity="1"/><rect x="-37.5" width="450" fill="#ffffff" y="-37.499999" height="449.999989" fill-opacity="1"/><g clip-path="url(#3038cb79e8)"><path fill="#000000" d="M 117.386719 221.957031 L 113.113281 220.761719 L 143.78125 178.105469 C 144.222656 177.496094 144.925781 177.132812 145.675781 177.125 C 146.429688 177.117188 147.140625 177.464844 147.589844 178.066406 L 156.363281 189.738281 C 157.148438 190.78125 156.933594 192.257812 155.890625 193.039062 C 154.847656 193.816406 153.367188 193.605469 152.585938 192.566406 L 143.8125 180.894531 L 147.621094 180.855469 L 116.953125 223.507812 C 116.375 224.3125 115.351562 224.671875 114.394531 224.402344 C 113.4375 224.136719 112.753906 223.300781 112.675781 222.3125 C 112.578125 221.015625 113.554688 219.882812 114.855469 219.785156 C 116.15625 219.6875 117.289062 220.65625 117.386719 221.957031 Z M 117.386719 221.957031 " fill-opacity="0.996" fill-rule="nonzero"/></g><g clip-path="url(#c30d18a586)"><path fill="#000000" d="M 148.019531 203.578125 L 143.773438 202.160156 L 182.867188 150.5 C 183.304688 149.921875 183.980469 149.578125 184.703125 149.5625 C 185.425781 149.546875 186.113281 149.863281 186.574219 150.417969 L 212.496094 181.757812 C 213.328125 182.761719 213.183594 184.246094 212.179688 185.074219 C 211.171875 185.902344 209.683594 185.761719 208.855469 184.757812 L 182.929688 153.417969 L 186.636719 153.339844 L 147.542969 205 C 146.929688 205.808594 145.871094 206.136719 144.90625 205.8125 C 143.945312 205.492188 143.296875 204.59375 143.296875 203.578125 C 143.296875 202.277344 144.351562 201.222656 145.65625 201.222656 C 146.960938 201.222656 148.019531 202.277344 148.019531 203.578125 Z M 148.019531 203.578125 " fill-opacity="0.996" fill-rule="nonzero"/></g><g clip-path="url(#cdce20173c)"><path fill="#000000" d="M 198.9375 203.886719 L 194.671875 202.402344 L 219.253906 169.003906 C 219.699219 168.398438 220.402344 168.039062 221.15625 168.039062 C 221.90625 168.039062 222.613281 168.394531 223.058594 169 L 261.613281 221.238281 C 262.386719 222.285156 262.164062 223.761719 261.113281 224.53125 C 260.0625 225.304688 258.582031 225.082031 257.808594 224.03125 L 219.253906 171.792969 L 223.0625 171.792969 L 198.480469 205.191406 C 197.867188 206.027344 196.78125 206.363281 195.800781 206.023438 C 194.820312 205.679688 194.175781 204.742188 194.21875 203.707031 C 194.265625 202.40625 195.363281 201.394531 196.667969 201.441406 C 197.972656 201.492188 198.988281 202.585938 198.9375 203.886719 Z M 198.9375 203.886719 " fill-opacity="0.996" fill-rule="nonzero"/></g></svg>