<svg xmlns="http://www.w3.org/2000/svg" xmlns:xlink="http://www.w3.org/1999/xlink" width="500" zoomAndPan="magnify" viewBox="0 0 375 374.999991" height="500" preserveAspectRatio="xMidYMid meet" version="1.0"><defs><clipPath id="955d442ab4"><path d="M 112.5 137.046875 L 262.5 137.046875 L 262.5 238.296875 L 112.5 238.296875 Z M 112.5 137.046875 " clip-rule="nonzero"/></clipPath></defs><rect x="-37.5" width="450" fill="#ffffff" y="-37.499999" height="449.999989" fill-opacity="1"/><rect x="-37.5" width="450" fill="#ffffff" y="-37.499999" height="449.999989" fill-opacity="1"/><g clip-path="url(#955d442ab4)"><path fill="#000000" d="M 207.867188 137.046875 C 207.316406 137.027344 206.769531 137.523438 206.21875 137.617188 C 205.59375 137.71875 203.921875 140.449219 203.714844 140.976562 C 203.503906 141.5 202.03125 143.492188 202.03125 143.492188 C 202.03125 143.492188 200.890625 144.972656 200.054688 146.339844 C 199.214844 147.703125 197.949219 148.121094 197.949219 148.121094 C 197.949219 148.121094 197.117188 148.535156 195.863281 148.742188 C 194.609375 148.953125 192.300781 149.785156 191.359375 149.679688 C 190.417969 149.574219 187.289062 151.050781 186.035156 151.683594 C 184.78125 152.3125 183.21875 153.679688 182.484375 154.308594 C 181.753906 154.9375 180.691406 155.152344 180.691406 155.152344 C 180.691406 155.152344 178.292969 156.09375 177.875 156.199219 C 177.457031 156.304688 176.621094 157.347656 176.832031 157.871094 C 177.039062 158.394531 175.988281 159.027344 175.988281 159.027344 C 175.988281 159.027344 174.324219 159.964844 173.589844 160.699219 C 173.414062 160.878906 173.332031 161.117188 173.316406 161.378906 L 115.875 147.386719 C 115.875 147.386719 115.238281 144.238281 114.609375 144.445312 C 113.984375 144.65625 112.835938 145.484375 112.835938 146.007812 C 112.835938 146.53125 113.148438 148.855469 113.148438 148.855469 C 113.148438 148.855469 114.824219 149.582031 115.03125 149.054688 C 115.238281 148.535156 173.164062 162.5625 173.574219 162.664062 C 173.710938 163.046875 173.863281 163.390625 173.902344 163.546875 L 173.371094 165.105469 C 173.371094 165.105469 174.941406 165.222656 175.257812 165.75 C 175.570312 166.273438 177.25 168.042969 177.25 168.042969 L 178.917969 167.109375 L 180.492188 166.996094 C 180.492188 166.996094 182.785156 165.742188 182.886719 164.902344 C 182.992188 164.0625 184.261719 162.074219 184.261719 162.074219 L 186.546875 161.964844 L 186.65625 164.589844 C 186.65625 164.589844 185.828125 165.328125 185.304688 165.328125 C 184.78125 165.328125 184.363281 165.84375 183.839844 166.683594 C 183.316406 167.523438 183.527344 167.945312 183.527344 169.625 C 183.527344 171.300781 183.308594 171.101562 182.578125 171.625 C 181.84375 172.148438 182.6875 173.40625 182.6875 173.40625 C 182.6875 173.40625 181.851562 176.128906 181.644531 176.96875 C 181.433594 177.808594 182.695312 181.070312 183.21875 181.910156 C 183.738281 182.746094 185.613281 187.675781 185.613281 187.675781 L 184.992188 190.410156 C 184.992188 190.410156 183.214844 190.621094 182.796875 190.410156 C 182.378906 190.199219 181.222656 192.082031 181.222656 192.082031 L 152.144531 174.453125 L 151.523438 175.5 L 180.378906 194.394531 L 196.285156 204.992188 C 196.285156 204.992188 193.242188 207.296875 193.136719 206.773438 C 193.03125 206.246094 191.988281 204.667969 191.359375 204.457031 C 190.734375 204.25 189.273438 207.292969 188.855469 207.398438 C 188.433594 207.5 186.238281 208.867188 186.238281 208.867188 L 154.871094 198.160156 L 155.183594 200.582031 L 198.992188 216.210938 L 227.867188 227.964844 C 227.867188 227.964844 236.863281 233.644531 238.847656 235.21875 C 240.835938 236.792969 245.746094 234.574219 245.746094 234.574219 C 245.746094 234.574219 256.933594 238.261719 258.503906 238.15625 C 260.070312 238.050781 262.164062 235.421875 262.164062 235.421875 L 260.078125 234.886719 C 260.078125 234.886719 255.253906 234.0625 254 234.484375 C 252.746094 234.902344 245.105469 231.121094 245.105469 231.121094 L 226.808594 223.355469 L 206.53125 208.554688 L 208.195312 206.773438 L 213.960938 199.628906 L 220.640625 192.925781 C 221.371094 192.191406 221.382812 192.292969 222.011719 191.347656 C 222.640625 190.402344 221.695312 189.769531 221.589844 189.035156 C 221.488281 188.296875 221.066406 188.621094 220.859375 188.097656 C 220.648438 187.570312 220.324219 186.835938 219.90625 186.207031 C 219.488281 185.574219 218.96875 185.476562 218.132812 184.847656 C 217.296875 184.214844 216.035156 184.214844 215.09375 184.113281 C 214.152344 184.007812 213.628906 183.578125 213.628906 183.578125 C 213.628906 183.578125 214.164062 183.058594 214.582031 182.21875 C 215 181.382812 216.035156 181.171875 216.558594 181.171875 C 217.082031 181.171875 217.722656 179.167969 217.929688 178.75 C 218.140625 178.328125 218.246094 176.980469 218.351562 176.453125 C 218.457031 175.929688 217.8125 175.296875 217.289062 174.5625 C 216.769531 173.828125 216.257812 174.039062 215.734375 173.828125 C 215.210938 173.617188 213.738281 173.191406 212.585938 173.296875 C 211.4375 173.402344 210.078125 172.675781 208.925781 172.78125 C 207.777344 172.886719 206.523438 172.242188 206 172.449219 C 205.476562 172.660156 204.742188 170.996094 205.578125 170.15625 C 206.414062 169.316406 206.011719 169.40625 206.640625 168.777344 C 207.265625 168.148438 208.621094 166.363281 209.039062 165.839844 C 209.457031 165.316406 209.355469 165.851562 209.878906 165.324219 C 210.402344 164.800781 212.171875 164.796875 213.007812 164.902344 C 213.84375 165.007812 214.691406 164.695312 215.425781 164.902344 C 216.15625 165.113281 216.988281 165.003906 217.929688 165.214844 C 218.871094 165.425781 220.023438 165.949219 221.589844 166.683594 C 223.160156 167.417969 224.410156 167.214844 225.5625 167.53125 C 226.710938 167.84375 227.34375 167.9375 229.332031 168.042969 C 231.320312 168.148438 231.734375 168.464844 232.570312 168.464844 C 233.40625 168.464844 235.5 169.199219 235.5 169.199219 L 237.785156 169.109375 C 237.785156 169.109375 238.796875 169.039062 239.855469 168.980469 C 239.324219 171.613281 230.6875 214.429688 230.6875 214.429688 C 230.6875 214.429688 227.757812 214.011719 227.757812 214.429688 C 227.757812 214.851562 227.960938 216.324219 228.378906 216.746094 C 228.796875 217.164062 229.953125 217.480469 229.953125 217.480469 L 229.535156 222.199219 L 230.375 222.398438 L 230.796875 217.480469 L 232.261719 216.632812 C 232.261719 216.632812 232.5625 215.070312 232.039062 214.652344 C 231.539062 214.246094 240.355469 172.132812 241.027344 168.925781 C 241.296875 168.914062 241.75 168.890625 241.867188 168.890625 C 242.496094 168.890625 242.816406 168.574219 243.128906 168.152344 C 243.445312 167.734375 244.277344 167.007812 244.171875 166.484375 C 244.070312 165.957031 244.90625 165.75 244.90625 165.75 C 244.90625 165.75 246.0625 165.53125 245.746094 164.480469 C 245.433594 163.433594 245.628906 164.28125 245.839844 163.234375 C 246.046875 162.183594 245.429688 162.386719 244.90625 161.652344 C 244.382812 160.917969 243.855469 161.234375 243.019531 160.917969 C 242.183594 160.605469 241.550781 160.804688 240.714844 160.699219 C 239.878906 160.59375 239.878906 161.023438 238.519531 160.917969 C 237.160156 160.8125 236.851562 161.765625 236.851562 161.765625 C 236.851562 161.765625 233.515625 161.445312 232.261719 161.339844 C 231.003906 161.238281 229.644531 160.292969 228.910156 159.871094 C 228.179688 159.453125 226.707031 159.664062 226.183594 159.136719 C 225.660156 158.613281 224.625 158.089844 224.519531 157.667969 C 224.414062 157.25 218.863281 154.9375 218.445312 154.308594 C 218.023438 153.679688 217.40625 153.777344 216.777344 153.464844 C 216.152344 153.148438 213.332031 152.722656 212.808594 152.617188 C 212.285156 152.511719 212.070312 152.839844 211.964844 152.105469 C 211.859375 151.371094 212.183594 151.148438 212.496094 150.414062 C 212.808594 149.679688 213.222656 149.367188 213.851562 148.632812 C 214.476562 147.898438 214.167969 147.28125 214.691406 146.339844 C 215.214844 145.394531 214.789062 145.167969 214.894531 143.804688 C 214.996094 142.441406 214.683594 142.757812 214.472656 141.289062 C 214.261719 139.820312 213.53125 140.234375 213.007812 139.398438 C 212.484375 138.558594 211.757812 138.453125 210.5 137.925781 C 209.246094 137.402344 208.730469 137.3125 208.105469 137.101562 C 208.027344 137.074219 207.945312 137.050781 207.867188 137.046875 Z M 199.941406 194.082031 L 204.023438 194.394531 L 205.910156 195.863281 L 201.828125 198.492188 Z M 215.425781 218.414062 L 220.128906 221.777344 L 214.785156 219.683594 Z M 238.320312 231.011719 C 238.738281 231.011719 242.710938 233.015625 242.710938 233.015625 L 241.867188 233.949219 Z M 238.320312 231.011719 " fill-opacity="1" fill-rule="nonzero"/></g></svg>