<svg xmlns="http://www.w3.org/2000/svg" xmlns:xlink="http://www.w3.org/1999/xlink" width="500" zoomAndPan="magnify" viewBox="0 0 375 374.999991" height="500" preserveAspectRatio="xMidYMid meet" version="1.0"><defs><g/></defs><rect x="-37.5" width="450" fill="#ffffff" y="-37.499999" height="449.999989" fill-opacity="1"/><rect x="-37.5" width="450" fill="#ffffff" y="-37.499999" height="449.999989" fill-opacity="1"/><g fill="#000000" fill-opacity="1"><g transform="translate(261.274871, 214.578102)"><g><path d="M -7.25 -17.953125 L -12.15625 -13.671875 L -8.71875 -5.15625 L -2.21875 -5.46875 L -0.328125 -0.8125 L -25.9375 0.0625 L -28.171875 -5.453125 L -9.125 -22.59375 Z M -23.625 -4.078125 L -23.234375 -4.140625 C -22.804688 -4.179688 -22.320312 -4.222656 -21.78125 -4.265625 C -21.238281 -4.316406 -18.203125 -4.484375 -12.671875 -4.765625 L -15.265625 -11.1875 L -20.78125 -6.40625 L -22.65625 -4.859375 Z M -23.625 -4.078125 "/></g></g></g><g fill="#000000" fill-opacity="1"><g transform="translate(238.312869, 175.05425)"><g><path d="M -22.140625 -6.375 C -20.847656 -8.332031 -19.125 -9.347656 -16.96875 -9.421875 C -14.820312 -9.492188 -12.34375 -8.59375 -9.53125 -6.71875 C -6.957031 -5.019531 -5.238281 -3.226562 -4.375 -1.34375 C -3.519531 0.539062 -3.5 2.539062 -4.3125 4.65625 L -8.796875 2.640625 C -8.367188 1.390625 -8.394531 0.265625 -8.875 -0.734375 C -9.363281 -1.742188 -10.316406 -2.71875 -11.734375 -3.65625 C -14.671875 -5.601562 -16.726562 -5.6875 -17.90625 -3.90625 C -18.28125 -3.332031 -18.421875 -2.75 -18.328125 -2.15625 C -18.234375 -1.5625 -17.960938 -0.9375 -17.515625 -0.28125 C -17.066406 0.363281 -16.097656 1.441406 -14.609375 2.953125 C -13.328125 4.296875 -12.460938 5.269531 -12.015625 5.875 C -11.566406 6.476562 -11.203125 7.082031 -10.921875 7.6875 C -10.640625 8.289062 -10.46875 8.90625 -10.40625 9.53125 C -10.34375 10.164062 -10.398438 10.816406 -10.578125 11.484375 C -10.765625 12.160156 -11.09375 12.851562 -11.5625 13.5625 C -12.769531 15.375 -14.375 16.3125 -16.375 16.375 C -18.382812 16.4375 -20.6875 15.601562 -23.28125 13.875 C -25.769531 12.226562 -27.378906 10.601562 -28.109375 9 C -28.847656 7.394531 -28.796875 5.578125 -27.953125 3.546875 L -23.5 5.6875 C -23.875 6.6875 -23.882812 7.613281 -23.53125 8.46875 C -23.1875 9.320312 -22.414062 10.148438 -21.21875 10.953125 C -18.675781 12.640625 -16.878906 12.691406 -15.828125 11.109375 C -15.484375 10.585938 -15.332031 10.066406 -15.375 9.546875 C -15.414062 9.035156 -15.625 8.488281 -16 7.90625 C -16.375 7.320312 -17.265625 6.3125 -18.671875 4.875 C -20.328125 3.1875 -21.453125 1.894531 -22.046875 1 C -22.648438 0.113281 -23.039062 -0.71875 -23.21875 -1.5 C -23.394531 -2.289062 -23.398438 -3.09375 -23.234375 -3.90625 C -23.066406 -4.71875 -22.703125 -5.539062 -22.140625 -6.375 Z M -22.140625 -6.375 "/></g></g></g><g fill="#000000" fill-opacity="1"><g transform="translate(199.165362, 156.153331)"><g><path d="M -22.15625 16.453125 C -22.15625 14.910156 -21.800781 13.523438 -21.09375 12.296875 C -20.382812 11.078125 -19.367188 10.132812 -18.046875 9.46875 C -16.734375 8.8125 -15.171875 8.484375 -13.359375 8.484375 L -7.390625 8.484375 L -7.390625 0 L -2.34375 0 L -2.34375 24.078125 L -13.15625 24.078125 C -16.039062 24.078125 -18.257812 23.410156 -19.8125 22.078125 C -21.375 20.753906 -22.15625 18.878906 -22.15625 16.453125 Z M -17.078125 16.375 C -17.078125 18.90625 -15.582031 20.171875 -12.59375 20.171875 L -7.390625 20.171875 L -7.390625 12.359375 L -12.734375 12.359375 C -14.117188 12.359375 -15.1875 12.703125 -15.9375 13.390625 C -16.695312 14.078125 -17.078125 15.070312 -17.078125 16.375 Z M -17.078125 16.375 "/></g></g></g><g fill="#000000" fill-opacity="1"><g transform="translate(155.751264, 162.149093)"><g><path d="M -1.953125 1.296875 L 11.359375 21.359375 L -4.421875 31.828125 L -6.578125 28.59375 L 5 20.90625 L 1.65625 15.859375 L -9.046875 22.96875 L -11.203125 19.71875 L -0.5 12.609375 L -4 7.3125 L -16.15625 15.390625 L -18.3125 12.15625 Z M -1.953125 1.296875 "/></g></g></g><g fill="#000000" fill-opacity="1"><g transform="translate(122.800979, 191.140368)"><g><path d="M -6.359375 15.765625 L 14.765625 13 C 13.015625 12.5 11.632812 12.039062 10.625 11.625 L -2.546875 6.3125 L -0.875 2.171875 L 21.453125 11.1875 L 19.296875 16.515625 L -2.015625 19.40625 C -0.347656 19.851562 1.132812 20.34375 2.4375 20.875 L 15.421875 26.109375 L 13.75 30.265625 L -8.578125 21.25 Z M -6.359375 15.765625 "/></g></g></g></svg>