<svg xmlns="http://www.w3.org/2000/svg" xmlns:xlink="http://www.w3.org/1999/xlink" width="500" zoomAndPan="magnify" viewBox="0 0 375 374.999991" height="500" preserveAspectRatio="xMidYMid meet" version="1.0"><defs><g/></defs><rect x="-37.5" width="450" fill="#ffffff" y="-37.499999" height="449.999989" fill-opacity="1"/><rect x="-37.5" width="450" fill="#ffffff" y="-37.499999" height="449.999989" fill-opacity="1"/><g fill="#000000" fill-opacity="1"><g transform="translate(163.109672, 176.249988)"><g><path d="M 11.640625 -3.109375 C 14.253906 -3.109375 16.066406 -4.414062 17.078125 -7.03125 L 20.84375 -5.609375 C 20.03125 -3.617188 18.835938 -2.132812 17.265625 -1.15625 C 15.703125 -0.1875 13.828125 0.296875 11.640625 0.296875 C 8.328125 0.296875 5.765625 -0.640625 3.953125 -2.515625 C 2.140625 -4.398438 1.234375 -7.035156 1.234375 -10.421875 C 1.234375 -13.804688 2.101562 -16.40625 3.84375 -18.21875 C 5.59375 -20.039062 8.128906 -20.953125 11.453125 -20.953125 C 13.878906 -20.953125 15.851562 -20.460938 17.375 -19.484375 C 18.894531 -18.515625 19.960938 -17.085938 20.578125 -15.203125 L 16.765625 -14.171875 C 16.453125 -15.203125 15.820312 -16.019531 14.875 -16.625 C 13.9375 -17.238281 12.828125 -17.546875 11.546875 -17.546875 C 9.585938 -17.546875 8.101562 -16.941406 7.09375 -15.734375 C 6.082031 -14.523438 5.578125 -12.753906 5.578125 -10.421875 C 5.578125 -8.046875 6.097656 -6.234375 7.140625 -4.984375 C 8.179688 -3.734375 9.679688 -3.109375 11.640625 -3.109375 Z M 11.640625 -3.109375 "/></g></g></g><g fill="#000000" fill-opacity="1"><g transform="translate(188.555014, 176.249988)"><g><path d="M 22.078125 -10.421875 C 22.078125 -8.265625 21.648438 -6.367188 20.796875 -4.734375 C 19.953125 -3.109375 18.738281 -1.863281 17.15625 -1 C 15.570312 -0.132812 13.722656 0.296875 11.609375 0.296875 C 8.367188 0.296875 5.828125 -0.65625 3.984375 -2.5625 C 2.148438 -4.476562 1.234375 -7.097656 1.234375 -10.421875 C 1.234375 -13.722656 2.148438 -16.300781 3.984375 -18.15625 C 5.816406 -20.019531 8.367188 -20.953125 11.640625 -20.953125 C 14.910156 -20.953125 17.46875 -20.015625 19.3125 -18.140625 C 21.15625 -16.265625 22.078125 -13.691406 22.078125 -10.421875 Z M 17.671875 -10.421875 C 17.671875 -12.640625 17.140625 -14.378906 16.078125 -15.640625 C 15.023438 -16.910156 13.546875 -17.546875 11.640625 -17.546875 C 9.710938 -17.546875 8.21875 -16.914062 7.15625 -15.65625 C 6.101562 -14.40625 5.578125 -12.660156 5.578125 -10.421875 C 5.578125 -8.148438 6.113281 -6.363281 7.1875 -5.0625 C 8.269531 -3.757812 9.742188 -3.109375 11.609375 -3.109375 C 13.546875 -3.109375 15.039062 -3.742188 16.09375 -5.015625 C 17.144531 -6.285156 17.671875 -8.085938 17.671875 -10.421875 Z M 17.671875 -10.421875 "/></g></g></g></svg>