<svg xmlns="http://www.w3.org/2000/svg" xmlns:xlink="http://www.w3.org/1999/xlink" width="500" zoomAndPan="magnify" viewBox="0 0 375 374.999991" height="500" preserveAspectRatio="xMidYMid meet" version="1.0"><defs><g/></defs><rect x="-37.5" width="450" fill="#ffffff" y="-37.499999" height="449.999989" fill-opacity="1"/><rect x="-37.5" width="450" fill="#ffffff" y="-37.499999" height="449.999989" fill-opacity="1"/><g fill="#ffde59" fill-opacity="1"><g transform="translate(265.542466, 175.142717)"><g><path d="M -18.671875 -16.109375 C -16.835938 -17.304688 -14.96875 -17.539062 -13.0625 -16.8125 C -11.164062 -16.09375 -9.425781 -14.507812 -7.84375 -12.0625 L -1.28125 -1.96875 L -21.46875 11.140625 L -27.46875 1.90625 C -29.070312 -0.5625 -29.851562 -2.707031 -29.8125 -4.53125 C -29.78125 -6.351562 -28.929688 -7.804688 -27.265625 -8.890625 C -26.117188 -9.628906 -24.941406 -9.9375 -23.734375 -9.8125 C -22.535156 -9.6875 -21.375 -9.066406 -20.25 -7.953125 C -21.132812 -9.703125 -21.4375 -11.273438 -21.15625 -12.671875 C -20.875 -14.078125 -20.046875 -15.222656 -18.671875 -16.109375 Z M -23.9375 -5.015625 C -24.84375 -4.421875 -25.296875 -3.707031 -25.296875 -2.875 C -25.304688 -2.050781 -24.941406 -1.070312 -24.203125 0.0625 L -21.09375 4.875 L -16.09375 1.625 L -19.234375 -3.203125 C -20.003906 -4.398438 -20.769531 -5.132812 -21.53125 -5.40625 C -22.300781 -5.675781 -23.101562 -5.546875 -23.9375 -5.015625 Z M -16.234375 -11.671875 C -18.117188 -10.441406 -18.179688 -8.472656 -16.421875 -5.765625 L -12.953125 -0.40625 L -7.171875 -4.15625 L -10.75 -9.671875 C -11.625 -11.023438 -12.507812 -11.851562 -13.40625 -12.15625 C -14.300781 -12.46875 -15.242188 -12.304688 -16.234375 -11.671875 Z M -16.234375 -11.671875 "/></g></g></g><g fill="#ffde59" fill-opacity="1"><g transform="translate(236.797646, 140.55107)"><g><path d="M -10.890625 -5.84375 C -7.929688 -4.363281 -6.023438 -2.503906 -5.171875 -0.265625 C -4.328125 1.972656 -4.582031 4.441406 -5.9375 7.140625 L -12.671875 20.59375 L -17.171875 18.328125 L -10.609375 5.21875 C -9.753906 3.519531 -9.507812 2.03125 -9.875 0.75 C -10.238281 -0.53125 -11.207031 -1.566406 -12.78125 -2.359375 C -14.382812 -3.160156 -15.851562 -3.316406 -17.1875 -2.828125 C -18.519531 -2.335938 -19.617188 -1.234375 -20.484375 0.484375 L -26.96875 13.4375 L -31.46875 11.171875 L -24.84375 -2.0625 C -23.476562 -4.789062 -21.578125 -6.484375 -19.140625 -7.140625 C -16.703125 -7.804688 -13.953125 -7.375 -10.890625 -5.84375 Z M -10.890625 -5.84375 "/></g></g></g><g fill="#ffde59" fill-opacity="1"><g transform="translate(194.83369, 125.566981)"><g><path d="M -6.578125 20.46875 L -6.875 13.015625 L -19.171875 13.5 L -19.328125 9.609375 L -7.03125 9.125 L -7.390625 0.296875 L -2.34375 0.09375 L -1.375 24.15625 L -19.109375 24.859375 L -19.265625 20.96875 Z M -6.578125 20.46875 "/></g></g></g><g fill="#ffde59" fill-opacity="1"><g transform="translate(154.900077, 131.737208)"><g><path d="M 3.5625 21.203125 L -0.125 14.71875 L -10.828125 20.8125 L -12.765625 17.421875 L -2.0625 11.328125 L -6.421875 3.65625 L -2.03125 1.15625 L 9.875 22.078125 L -5.5625 30.859375 L -7.484375 27.484375 Z M 3.5625 21.203125 "/></g></g></g><g fill="#ffde59" fill-opacity="1"><g transform="translate(122.049339, 155.616947)"><g><path d="M -5.84375 22.296875 C -7.84375 21.035156 -8.90625 19.332031 -9.03125 17.1875 C -9.15625 15.039062 -8.316406 12.535156 -6.515625 9.671875 C -4.867188 7.066406 -3.113281 5.3125 -1.25 4.40625 C 0.613281 3.507812 2.613281 3.441406 4.75 4.203125 L 2.84375 8.75 C 1.582031 8.34375 0.457031 8.390625 -0.53125 8.890625 C -1.53125 9.398438 -2.484375 10.375 -3.390625 11.8125 C -5.265625 14.789062 -5.300781 16.851562 -3.5 18 C -2.914062 18.363281 -2.328125 18.488281 -1.734375 18.375 C -1.140625 18.269531 -0.523438 17.984375 0.109375 17.515625 C 0.753906 17.054688 1.8125 16.0625 3.28125 14.53125 C 4.601562 13.226562 5.554688 12.34375 6.140625 11.875 C 6.734375 11.414062 7.328125 11.039062 7.921875 10.75 C 8.523438 10.457031 9.144531 10.269531 9.78125 10.1875 C 10.414062 10.101562 11.066406 10.144531 11.734375 10.3125 C 12.410156 10.488281 13.109375 10.800781 13.828125 11.25 C 15.671875 12.414062 16.644531 13.992188 16.75 15.984375 C 16.851562 17.984375 16.078125 20.300781 14.421875 22.9375 C 12.828125 25.46875 11.234375 27.117188 9.640625 27.890625 C 8.054688 28.671875 6.234375 28.660156 4.171875 27.859375 L 6.21875 23.375 C 7.238281 23.71875 8.171875 23.703125 9.015625 23.328125 C 9.867188 22.960938 10.675781 22.171875 11.4375 20.953125 C 13.0625 18.367188 13.066406 16.566406 11.453125 15.546875 C 10.929688 15.210938 10.414062 15.078125 9.90625 15.140625 C 9.394531 15.203125 8.847656 15.425781 8.265625 15.8125 C 7.691406 16.207031 6.707031 17.117188 5.3125 18.546875 C 3.664062 20.242188 2.398438 21.398438 1.515625 22.015625 C 0.640625 22.640625 -0.1875 23.050781 -0.96875 23.25 C -1.75 23.445312 -2.546875 23.46875 -3.359375 23.3125 C -4.171875 23.164062 -5 22.828125 -5.84375 22.296875 Z M -5.84375 22.296875 "/></g></g></g><g fill="#000000" fill-opacity="1"><g transform="translate(221.485389, 184.497643)"><g><path d="M -4.65625 1.25 C -5.695312 1.25 -6.421875 1.769531 -6.828125 2.8125 L -8.34375 2.25 C -8.019531 1.445312 -7.539062 0.847656 -6.90625 0.453125 C -6.28125 0.0664062 -5.53125 -0.125 -4.65625 -0.125 C -3.332031 -0.125 -2.304688 0.25 -1.578125 1 C -0.859375 1.757812 -0.5 2.816406 -0.5 4.171875 C -0.5 5.523438 -0.847656 6.5625 -1.546875 7.28125 C -2.242188 8.007812 -3.253906 8.375 -4.578125 8.375 C -5.546875 8.375 -6.332031 8.179688 -6.9375 7.796875 C -7.550781 7.410156 -7.984375 6.835938 -8.234375 6.078125 L -6.703125 5.671875 C -6.578125 6.078125 -6.328125 6.398438 -5.953125 6.640625 C -5.578125 6.890625 -5.132812 7.015625 -4.625 7.015625 C -3.84375 7.015625 -3.25 6.769531 -2.84375 6.28125 C -2.4375 5.800781 -2.234375 5.097656 -2.234375 4.171875 C -2.234375 3.222656 -2.441406 2.5 -2.859375 2 C -3.273438 1.5 -3.875 1.25 -4.65625 1.25 Z M -4.65625 1.25 "/></g></g></g><g fill="#000000" fill-opacity="1"><g transform="translate(213.107365, 184.497643)"><g><path d="M -8.828125 4.171875 C -8.828125 3.304688 -8.65625 2.546875 -8.3125 1.890625 C -7.976562 1.242188 -7.492188 0.742188 -6.859375 0.390625 C -6.222656 0.046875 -5.484375 -0.125 -4.640625 -0.125 C -3.347656 -0.125 -2.332031 0.253906 -1.59375 1.015625 C -0.863281 1.785156 -0.5 2.835938 -0.5 4.171875 C -0.5 5.492188 -0.863281 6.523438 -1.59375 7.265625 C -2.332031 8.003906 -3.351562 8.375 -4.65625 8.375 C -5.96875 8.375 -6.988281 8 -7.71875 7.25 C -8.457031 6.5 -8.828125 5.472656 -8.828125 4.171875 Z M -7.0625 4.171875 C -7.0625 5.054688 -6.847656 5.75 -6.421875 6.25 C -6.003906 6.757812 -5.414062 7.015625 -4.65625 7.015625 C -3.882812 7.015625 -3.285156 6.765625 -2.859375 6.265625 C -2.441406 5.765625 -2.234375 5.066406 -2.234375 4.171875 C -2.234375 3.265625 -2.445312 2.550781 -2.875 2.03125 C -3.3125 1.507812 -3.898438 1.25 -4.640625 1.25 C -5.421875 1.25 -6.019531 1.5 -6.4375 2 C -6.851562 2.507812 -7.0625 3.234375 -7.0625 4.171875 Z M -7.0625 4.171875 "/></g></g></g><g fill="#000000" fill-opacity="1"><g transform="translate(204.061371, 184.497643)"><g><path d="M -0.796875 0 L -0.796875 8.25 L -2.53125 8.25 L -2.53125 1.34375 L -6.96875 1.34375 L -6.96875 0 Z M -0.796875 0 "/></g></g></g><g fill="#000000" fill-opacity="1"><g transform="translate(197.019284, 184.497643)"><g><path d="M -8.828125 4.171875 C -8.828125 3.304688 -8.65625 2.546875 -8.3125 1.890625 C -7.976562 1.242188 -7.492188 0.742188 -6.859375 0.390625 C -6.222656 0.046875 -5.484375 -0.125 -4.640625 -0.125 C -3.347656 -0.125 -2.332031 0.253906 -1.59375 1.015625 C -0.863281 1.785156 -0.5 2.835938 -0.5 4.171875 C -0.5 5.492188 -0.863281 6.523438 -1.59375 7.265625 C -2.332031 8.003906 -3.351562 8.375 -4.65625 8.375 C -5.96875 8.375 -6.988281 8 -7.71875 7.25 C -8.457031 6.5 -8.828125 5.472656 -8.828125 4.171875 Z M -7.0625 4.171875 C -7.0625 5.054688 -6.847656 5.75 -6.421875 6.25 C -6.003906 6.757812 -5.414062 7.015625 -4.65625 7.015625 C -3.882812 7.015625 -3.285156 6.765625 -2.859375 6.265625 C -2.441406 5.765625 -2.234375 5.066406 -2.234375 4.171875 C -2.234375 3.265625 -2.445312 2.550781 -2.875 2.03125 C -3.3125 1.507812 -3.898438 1.25 -4.640625 1.25 C -5.421875 1.25 -6.019531 1.5 -6.4375 2 C -6.851562 2.507812 -7.0625 3.234375 -7.0625 4.171875 Z M -7.0625 4.171875 "/></g></g></g><g fill="#000000" fill-opacity="1"><g transform="translate(187.973291, 184.497643)"><g><path d="M -6.46875 0 L -4.5625 3.140625 L -2.53125 3.140625 L -2.53125 0 L -0.796875 0 L -0.796875 8.25 L -4.921875 8.25 C -5.910156 8.25 -6.671875 8.035156 -7.203125 7.609375 C -7.742188 7.191406 -8.015625 6.585938 -8.015625 5.796875 C -8.015625 5.210938 -7.847656 4.710938 -7.515625 4.296875 C -7.191406 3.878906 -6.75 3.601562 -6.1875 3.46875 L -8.421875 0 Z M -6.265625 5.71875 C -6.265625 6.519531 -5.757812 6.921875 -4.75 6.921875 L -2.53125 6.921875 L -2.53125 4.484375 L -4.796875 4.484375 C -5.273438 4.484375 -5.640625 4.59375 -5.890625 4.8125 C -6.140625 5.03125 -6.265625 5.332031 -6.265625 5.71875 Z M -6.265625 5.71875 "/></g></g></g><g fill="#000000" fill-opacity="1"><g transform="translate(179.595267, 184.497643)"><g><path d="M -6.640625 0 L -5.90625 2.109375 L -2.765625 2.109375 L -2.03125 0 L -0.296875 0 L -3.3125 8.25 L -5.34375 8.25 L -8.34375 0 Z M -4.328125 6.984375 L -4.296875 6.859375 C -4.253906 6.710938 -4.207031 6.550781 -4.15625 6.375 C -4.101562 6.195312 -3.765625 5.207031 -3.140625 3.40625 L -5.515625 3.40625 L -4.703125 5.78125 L -4.453125 6.578125 Z M -4.328125 6.984375 "/></g></g></g><g fill="#000000" fill-opacity="1"><g transform="translate(171.217242, 184.497643)"><g><path d="M -8.15625 4.1875 C -8.15625 3.332031 -7.988281 2.585938 -7.65625 1.953125 C -7.320312 1.328125 -6.847656 0.84375 -6.234375 0.5 C -5.628906 0.164062 -4.929688 0 -4.140625 0 L -0.796875 0 L -0.796875 8.25 L -3.796875 8.25 C -5.179688 8.25 -6.253906 7.898438 -7.015625 7.203125 C -7.773438 6.503906 -8.15625 5.5 -8.15625 4.1875 Z M -6.421875 4.1875 C -6.421875 5.070312 -6.191406 5.75 -5.734375 6.21875 C -5.273438 6.6875 -4.613281 6.921875 -3.75 6.921875 L -2.53125 6.921875 L -2.53125 1.34375 L -4 1.34375 C -4.738281 1.34375 -5.328125 1.597656 -5.765625 2.109375 C -6.203125 2.617188 -6.421875 3.3125 -6.421875 4.1875 Z M -6.421875 4.1875 "/></g></g></g><g fill="#000000" fill-opacity="1"><g transform="translate(162.839217, 184.497643)"><g><path d="M -8.828125 4.171875 C -8.828125 3.304688 -8.65625 2.546875 -8.3125 1.890625 C -7.976562 1.242188 -7.492188 0.742188 -6.859375 0.390625 C -6.222656 0.046875 -5.484375 -0.125 -4.640625 -0.125 C -3.347656 -0.125 -2.332031 0.253906 -1.59375 1.015625 C -0.863281 1.785156 -0.5 2.835938 -0.5 4.171875 C -0.5 5.492188 -0.863281 6.523438 -1.59375 7.265625 C -2.332031 8.003906 -3.351562 8.375 -4.65625 8.375 C -5.96875 8.375 -6.988281 8 -7.71875 7.25 C -8.457031 6.5 -8.828125 5.472656 -8.828125 4.171875 Z M -7.0625 4.171875 C -7.0625 5.054688 -6.847656 5.75 -6.421875 6.25 C -6.003906 6.757812 -5.414062 7.015625 -4.65625 7.015625 C -3.882812 7.015625 -3.285156 6.765625 -2.859375 6.265625 C -2.441406 5.765625 -2.234375 5.066406 -2.234375 4.171875 C -2.234375 3.265625 -2.445312 2.550781 -2.875 2.03125 C -3.3125 1.507812 -3.898438 1.25 -4.640625 1.25 C -5.421875 1.25 -6.019531 1.5 -6.4375 2 C -6.851562 2.507812 -7.0625 3.234375 -7.0625 4.171875 Z M -7.0625 4.171875 "/></g></g></g></svg>