<svg xmlns="http://www.w3.org/2000/svg" xmlns:xlink="http://www.w3.org/1999/xlink" width="500" zoomAndPan="magnify" viewBox="0 0 375 374.999991" height="500" preserveAspectRatio="xMidYMid meet" version="1.0"><defs><g/></defs><rect x="-37.5" width="450" fill="#ffffff" y="-37.499999" height="449.999989" fill-opacity="1"/><rect x="-37.5" width="450" fill="#ffffff" y="-37.499999" height="449.999989" fill-opacity="1"/><g fill="#ff751f" fill-opacity="1"><g transform="translate(261.255827, 183.917986)"><g><path d="M -15.25 -19.390625 C -13.21875 -20.210938 -11.335938 -20.085938 -9.609375 -19.015625 C -7.890625 -17.941406 -6.484375 -16.050781 -5.390625 -13.34375 L -0.875 -2.171875 L -23.203125 6.84375 L -27.328125 -3.375 C -28.429688 -6.101562 -28.789062 -8.351562 -28.40625 -10.125 C -28.019531 -11.90625 -26.90625 -13.171875 -25.0625 -13.921875 C -23.800781 -14.429688 -22.59375 -14.515625 -21.4375 -14.171875 C -20.28125 -13.828125 -19.253906 -13 -18.359375 -11.6875 C -18.890625 -13.570312 -18.882812 -15.171875 -18.34375 -16.484375 C -17.800781 -17.804688 -16.769531 -18.773438 -15.25 -19.390625 Z M -22.53125 -9.484375 C -23.539062 -9.078125 -24.125 -8.460938 -24.28125 -7.640625 C -24.445312 -6.828125 -24.28125 -5.796875 -23.78125 -4.546875 L -21.625 0.765625 L -16.09375 -1.46875 L -18.25 -6.8125 C -18.789062 -8.132812 -19.410156 -9.003906 -20.109375 -9.421875 C -20.804688 -9.835938 -21.613281 -9.859375 -22.53125 -9.484375 Z M -13.703125 -14.546875 C -15.785156 -13.703125 -16.222656 -11.785156 -15.015625 -8.796875 L -12.625 -2.875 L -6.25 -5.453125 L -8.71875 -11.546875 C -9.320312 -13.046875 -10.03125 -14.03125 -10.84375 -14.5 C -11.65625 -14.96875 -12.609375 -14.984375 -13.703125 -14.546875 Z M -13.703125 -14.546875 "/></g></g></g><g fill="#ff751f" fill-opacity="1"><g transform="translate(238.293828, 144.394192)"><g><path d="M -1.953125 -1.296875 L -15.265625 18.765625 L -31.046875 8.296875 L -28.890625 5.0625 L -17.3125 12.75 L -13.96875 7.703125 L -24.671875 0.59375 L -22.515625 -2.65625 L -11.8125 4.453125 L -8.3125 -0.84375 L -20.46875 -8.921875 L -18.3125 -12.15625 Z M -1.953125 -1.296875 "/></g></g></g><g fill="#ff751f" fill-opacity="1"><g transform="translate(198.772525, 125.30746)"><g><path d="M -19.359375 0.296875 L -17.140625 6.421875 L -7.953125 6.28125 L -5.90625 0.09375 L -0.875 0.015625 L -9.28125 24.234375 L -15.234375 24.3125 L -24.359375 0.375 Z M -12.3125 20.5625 L -12.21875 20.1875 C -12.113281 19.769531 -11.984375 19.300781 -11.828125 18.78125 C -11.671875 18.257812 -10.734375 15.363281 -9.015625 10.09375 L -15.9375 10.203125 L -13.453125 17.09375 L -12.6875 19.390625 Z M -12.3125 20.5625 "/></g></g></g><g fill="#ff751f" fill-opacity="1"><g transform="translate(153.631822, 132.493517)"><g><path d="M -11.625 8.234375 L -7.453125 5.28125 L 13.734375 19.78125 L 9.4375 22.828125 L -3.546875 13.078125 C -4.378906 12.429688 -5.601562 11.4375 -7.21875 10.09375 L -6.65625 11.5 L -5.578125 14.515625 L -0.671875 29.984375 L -4.9375 33 Z M -11.625 8.234375 "/></g></g></g><g fill="#ff751f" fill-opacity="1"><g transform="translate(121.831535, 162.380484)"><g><path d="M -1.453125 23.015625 C -3.648438 22.171875 -5.015625 20.703125 -5.546875 18.609375 C -6.085938 16.523438 -5.75 13.90625 -4.53125 10.75 C -3.414062 7.875 -2.03125 5.8125 -0.375 4.5625 C 1.269531 3.320312 3.222656 2.867188 5.484375 3.203125 L 4.5 8.03125 C 3.175781 7.882812 2.070312 8.148438 1.1875 8.828125 C 0.3125 9.515625 -0.429688 10.648438 -1.046875 12.234375 C -2.316406 15.523438 -1.957031 17.554688 0.03125 18.328125 C 0.675781 18.578125 1.273438 18.585938 1.828125 18.359375 C 2.390625 18.140625 2.941406 17.738281 3.484375 17.15625 C 4.035156 16.582031 4.882812 15.40625 6.03125 13.625 C 7.070312 12.082031 7.835938 11.023438 8.328125 10.453125 C 8.828125 9.890625 9.335938 9.40625 9.859375 9 C 10.390625 8.601562 10.957031 8.304688 11.5625 8.109375 C 12.164062 7.910156 12.8125 7.828125 13.5 7.859375 C 14.195312 7.898438 14.945312 8.070312 15.75 8.375 C 17.78125 9.15625 19.039062 10.515625 19.53125 12.453125 C 20.019531 14.398438 19.703125 16.828125 18.578125 19.734375 C 17.492188 22.515625 16.25 24.4375 14.84375 25.5 C 13.4375 26.570312 11.648438 26.914062 9.484375 26.53125 L 10.625 21.734375 C 11.675781 21.878906 12.582031 21.6875 13.34375 21.15625 C 14.101562 20.632812 14.742188 19.703125 15.265625 18.359375 C 16.367188 15.515625 16.035156 13.75 14.265625 13.0625 C 13.679688 12.832031 13.140625 12.796875 12.640625 12.953125 C 12.148438 13.117188 11.65625 13.441406 11.15625 13.921875 C 10.664062 14.410156 9.878906 15.5 8.796875 17.1875 C 7.503906 19.164062 6.484375 20.539062 5.734375 21.3125 C 4.992188 22.09375 4.257812 22.65625 3.53125 23 C 2.800781 23.351562 2.019531 23.53125 1.1875 23.53125 C 0.363281 23.539062 -0.515625 23.367188 -1.453125 23.015625 Z M -1.453125 23.015625 "/></g></g></g><g fill="#000000" fill-opacity="1"><g transform="translate(220.465858, 184.497585)"><g><path d="M -4.65625 1.25 C -5.695312 1.25 -6.421875 1.769531 -6.828125 2.8125 L -8.34375 2.25 C -8.019531 1.445312 -7.539062 0.847656 -6.90625 0.453125 C -6.28125 0.0664062 -5.53125 -0.125 -4.65625 -0.125 C -3.332031 -0.125 -2.304688 0.25 -1.578125 1 C -0.859375 1.757812 -0.5 2.816406 -0.5 4.171875 C -0.5 5.523438 -0.847656 6.5625 -1.546875 7.28125 C -2.242188 8.007812 -3.253906 8.375 -4.578125 8.375 C -5.546875 8.375 -6.332031 8.179688 -6.9375 7.796875 C -7.550781 7.410156 -7.984375 6.835938 -8.234375 6.078125 L -6.703125 5.671875 C -6.578125 6.078125 -6.328125 6.398438 -5.953125 6.640625 C -5.578125 6.890625 -5.132812 7.015625 -4.625 7.015625 C -3.84375 7.015625 -3.25 6.769531 -2.84375 6.28125 C -2.4375 5.800781 -2.234375 5.097656 -2.234375 4.171875 C -2.234375 3.222656 -2.441406 2.5 -2.859375 2 C -3.273438 1.5 -3.875 1.25 -4.65625 1.25 Z M -4.65625 1.25 "/></g></g></g><g fill="#000000" fill-opacity="1"><g transform="translate(212.087833, 184.497585)"><g><path d="M -8.828125 4.171875 C -8.828125 3.304688 -8.65625 2.546875 -8.3125 1.890625 C -7.976562 1.242188 -7.492188 0.742188 -6.859375 0.390625 C -6.222656 0.046875 -5.484375 -0.125 -4.640625 -0.125 C -3.347656 -0.125 -2.332031 0.253906 -1.59375 1.015625 C -0.863281 1.785156 -0.5 2.835938 -0.5 4.171875 C -0.5 5.492188 -0.863281 6.523438 -1.59375 7.265625 C -2.332031 8.003906 -3.351562 8.375 -4.65625 8.375 C -5.96875 8.375 -6.988281 8 -7.71875 7.25 C -8.457031 6.5 -8.828125 5.472656 -8.828125 4.171875 Z M -7.0625 4.171875 C -7.0625 5.054688 -6.847656 5.75 -6.421875 6.25 C -6.003906 6.757812 -5.414062 7.015625 -4.65625 7.015625 C -3.882812 7.015625 -3.285156 6.765625 -2.859375 6.265625 C -2.441406 5.765625 -2.234375 5.066406 -2.234375 4.171875 C -2.234375 3.265625 -2.445312 2.550781 -2.875 2.03125 C -3.3125 1.507812 -3.898438 1.25 -4.640625 1.25 C -5.421875 1.25 -6.019531 1.5 -6.4375 2 C -6.851562 2.507812 -7.0625 3.234375 -7.0625 4.171875 Z M -7.0625 4.171875 "/></g></g></g><g fill="#000000" fill-opacity="1"><g transform="translate(203.04184, 184.497585)"><g><path d="M -6.46875 0 L -4.5625 3.140625 L -2.53125 3.140625 L -2.53125 0 L -0.796875 0 L -0.796875 8.25 L -4.921875 8.25 C -5.910156 8.25 -6.671875 8.035156 -7.203125 7.609375 C -7.742188 7.191406 -8.015625 6.585938 -8.015625 5.796875 C -8.015625 5.210938 -7.847656 4.710938 -7.515625 4.296875 C -7.191406 3.878906 -6.75 3.601562 -6.1875 3.46875 L -8.421875 0 Z M -6.265625 5.71875 C -6.265625 6.519531 -5.757812 6.921875 -4.75 6.921875 L -2.53125 6.921875 L -2.53125 4.484375 L -4.796875 4.484375 C -5.273438 4.484375 -5.640625 4.59375 -5.890625 4.8125 C -6.140625 5.03125 -6.265625 5.332031 -6.265625 5.71875 Z M -6.265625 5.71875 "/></g></g></g><g fill="#000000" fill-opacity="1"><g transform="translate(194.880613, 184.497585)"><g><path d="M -4.890625 0 L -3.140625 0 L -0.078125 8.25 L -1.890625 8.25 L -3.59375 2.953125 C -3.695312 2.609375 -3.835938 2.085938 -4.015625 1.390625 L -4.140625 1.90625 L -4.4375 2.953125 L -6.140625 8.25 L -7.921875 8.25 Z M -4.890625 0 "/></g></g></g><g fill="#000000" fill-opacity="1"><g transform="translate(188.055322, 184.497585)"><g><path d="M -6.640625 0 L -5.90625 2.109375 L -2.765625 2.109375 L -2.03125 0 L -0.296875 0 L -3.3125 8.25 L -5.34375 8.25 L -8.34375 0 Z M -4.328125 6.984375 L -4.296875 6.859375 C -4.253906 6.710938 -4.207031 6.550781 -4.15625 6.375 C -4.101562 6.195312 -3.765625 5.207031 -3.140625 3.40625 L -5.515625 3.40625 L -4.703125 5.78125 L -4.453125 6.578125 Z M -4.328125 6.984375 "/></g></g></g><g fill="#000000" fill-opacity="1"><g transform="translate(179.677298, 184.497585)"><g><path d="M -0.796875 0 L -0.796875 8.25 L -2.53125 8.25 L -2.53125 1.34375 L -6.96875 1.34375 L -6.96875 0 Z M -0.796875 0 "/></g></g></g><g fill="#000000" fill-opacity="1"><g transform="translate(172.635211, 184.497585)"><g><path d="M -0.796875 0 L -0.796875 8.25 L -2.53125 8.25 L -2.53125 1.34375 L -6.96875 1.34375 L -6.96875 0 Z M -0.796875 0 "/></g></g></g><g fill="#000000" fill-opacity="1"><g transform="translate(165.593124, 184.497585)"><g><path d="M -0.796875 0 L -0.796875 8.25 L -2.53125 8.25 L -2.53125 0 Z M -0.796875 0 "/></g></g></g><g fill="#000000" fill-opacity="1"><g transform="translate(162.54713, 184.497585)"><g><path d="M -7.53125 2.375 C -7.53125 1.570312 -7.226562 0.953125 -6.625 0.515625 C -6.03125 0.0859375 -5.15625 -0.125 -4 -0.125 C -2.9375 -0.125 -2.101562 0.0625 -1.5 0.4375 C -0.90625 0.820312 -0.519531 1.394531 -0.34375 2.15625 L -2.015625 2.421875 C -2.128906 1.984375 -2.347656 1.664062 -2.671875 1.46875 C -3.003906 1.269531 -3.460938 1.171875 -4.046875 1.171875 C -5.253906 1.171875 -5.859375 1.539062 -5.859375 2.28125 C -5.859375 2.507812 -5.785156 2.703125 -5.640625 2.859375 C -5.503906 3.015625 -5.3125 3.140625 -5.0625 3.234375 C -4.8125 3.335938 -4.328125 3.460938 -3.609375 3.609375 C -2.992188 3.753906 -2.5625 3.867188 -2.3125 3.953125 C -2.070312 4.046875 -1.851562 4.148438 -1.65625 4.265625 C -1.46875 4.390625 -1.304688 4.535156 -1.171875 4.703125 C -1.035156 4.867188 -0.925781 5.0625 -0.84375 5.28125 C -0.769531 5.507812 -0.734375 5.773438 -0.734375 6.078125 C -0.734375 6.816406 -1.015625 7.382812 -1.578125 7.78125 C -2.140625 8.175781 -2.953125 8.375 -4.015625 8.375 C -5.046875 8.375 -5.816406 8.210938 -6.328125 7.890625 C -6.835938 7.578125 -7.164062 7.050781 -7.3125 6.3125 L -5.640625 6.078125 C -5.554688 6.429688 -5.378906 6.695312 -5.109375 6.875 C -4.847656 7.0625 -4.472656 7.15625 -3.984375 7.15625 C -2.941406 7.15625 -2.421875 6.828125 -2.421875 6.171875 C -2.421875 5.953125 -2.472656 5.773438 -2.578125 5.640625 C -2.691406 5.503906 -2.859375 5.390625 -3.078125 5.296875 C -3.296875 5.203125 -3.738281 5.082031 -4.40625 4.9375 C -5.195312 4.769531 -5.765625 4.613281 -6.109375 4.46875 C -6.453125 4.320312 -6.722656 4.15625 -6.921875 3.96875 C -7.117188 3.78125 -7.269531 3.550781 -7.375 3.28125 C -7.476562 3.019531 -7.53125 2.71875 -7.53125 2.375 Z M -7.53125 2.375 "/></g></g></g></svg>